<?xml version="1.0" standalone="no"?>
<!DOCTYPE svg PUBLIC "-//W3C//DTD SVG 20010904//EN"
 "http://www.w3.org/TR/2001/REC-SVG-20010904/DTD/svg10.dtd">
<svg version="1.0" xmlns="http://www.w3.org/2000/svg"
 width="512.000000pt" height="512.000000pt" viewBox="0 0 512.000000 512.000000"
 preserveAspectRatio="xMidYMid meet">

<g transform="translate(0.000000,512.000000) scale(0.100000,-0.100000)"
fill="#000000" stroke="none">
<path d="M1919 5077 c-24 -13 -56 -41 -70 -63 -14 -21 -210 -547 -434 -1169
-456 -1261 -439 -1202 -379 -1288 53 -76 154 -107 237 -72 82 34 74 14 481
1144 209 578 382 1051 385 1051 18 0 2514 -500 2518 -504 10 -10 -335 -1055
-527 -1596 -104 -294 -276 -748 -330 -875 -201 -470 -416 -746 -673 -865 -294
-137 -548 -96 -685 110 -81 121 -118 258 -130 478 l-7 133 -1099 444 c-604
245 -1106 447 -1116 450 -42 13 -72 -383 -41 -545 30 -160 88 -292 179 -410
66 -86 190 -190 283 -238 102 -52 1798 -816 1864 -840 245 -87 455 -89 733 -6
374 112 644 353 887 793 130 236 238 501 482 1181 215 600 597 1757 625 1891
15 77 -2 132 -57 186 -37 35 -55 44 -117 57 -303 66 -2895 576 -2926 576 -21
0 -59 -10 -83 -23z"/>
</g>
</svg>
