<svg xmlns="http://www.w3.org/2000/svg"  viewBox="0 0 64 64" width="64px" height="64px" baseProfile="basic"><circle cx="32" cy="32" r="23" fill="#9c34c2"/><ellipse cx="32" cy="61" opacity=".3" rx="19" ry="3"/><path fill="#fff" d="M32,14c2.577,0,4.674-1.957,4.946-4.461C35.352,9.19,33.699,9,32,9 C19.297,9,9,19.297,9,32c0,1.699,0.19,3.352,0.539,4.946C12.044,36.674,14,34.577,14,32C14,22.075,22.075,14,32,14z" opacity=".3"/><path fill="none" stroke="#fff" stroke-linecap="round" stroke-linejoin="round" stroke-miterlimit="10" stroke-width="3" d="M15.047,23.427c1.878-3.699,4.932-6.705,8.666-8.522"/><path d="M54.461,27.054C51.956,27.326,50,29.423,50,32c0,9.925-8.075,18-18,18 c-2.577,0-4.674,1.957-4.946,4.461C28.648,54.81,30.301,55,32,55c12.703,0,23-10.297,23-23C55,30.301,54.81,28.648,54.461,27.054z" opacity=".15"/><path fill="#9c34c2" d="M25,52l-13.183,3.877c-1.648,0.485-3.179-1.047-2.695-2.695L13,40L25,52z"/><path fill="#a0effe" d="M32.018,24c-0.971,0-1.72-0.257-2.239-0.774C29.26,22.71,29,21.974,29,21.02	c0-0.98,0.26-1.728,0.779-2.244C30.299,18.259,31.047,18,32.018,18C34.006,18,35,19.007,35,21.02C35,23.007,34.006,24,32.018,24z"/><path fill="#a0effe" d="M32.021,46c-0.983,0-1.73-0.27-2.248-0.807C29.259,44.657,29,43.9,29,42.926V30.109	C29,28.037,30.006,27,32.021,27c0.954,0,1.688,0.268,2.206,0.805C34.741,28.342,35,29.11,35,30.109v12.817	c0,0.974-0.252,1.731-0.754,2.267C33.742,45.73,33.001,46,32.021,46z"/></svg>